<?xml version="1.0" encoding="UTF-8"?>
<svg width="56px" height="56px" viewBox="0 0 56 56" version="1.1" xmlns="http://www.w3.org/2000/svg" xmlns:xlink="http://www.w3.org/1999/xlink">
    <!-- Generator: Sketch 43.1 (39012) - http://www.bohemiancoding.com/sketch -->
    <title>footbar_find_nor@1x</title>
    <desc>Created with Sketch.</desc>
    <defs>
        <path d="M234.834698,608.764944 C235.531932,608.918857 236.25649,609 237,609 C242.522847,609 247,604.522847 247,599 C247,596.39586 246.004584,594.024212 244.373488,592.24479 L246.127875,584.384534 C246.36925,583.303092 245.904774,583.041694 245.093427,583.787296 L239.165302,589.235056 C238.468068,589.081143 237.74351,589 237,589 C231.477153,589 227,593.477153 227,599 C227,601.60414 227.995416,603.975788 229.626512,605.75521 L227.872125,613.615466 C227.63075,614.696908 228.095226,614.958306 228.906573,614.212704 L234.834698,608.764944 Z M237,623 C223.745166,623 213,612.254834 213,599 C213,585.745166 223.745166,575 237,575 C250.254834,575 261,585.745166 261,599 C261,612.254834 250.254834,623 237,623 Z M237,603 C234.790861,603 233,601.209139 233,599 C233,596.790861 234.790861,595 237,595 C239.209139,595 241,596.790861 241,599 C241,601.209139 239.209139,603 237,603 Z" id="path-1"></path>
    </defs>
    <g id="Page-1" stroke="none" stroke-width="1" fill="none" fill-rule="evenodd">
        <g id="Artboard" transform="translate(-209.000000, -571.000000)">
            <g id="footbar_find_nor">
                <use fill="#FFFFFF" fill-rule="evenodd" xlink:href="#path-1"></use>
                <path stroke="#8B8B8B" stroke-width="2" d="M235.139326,609.843126 C235.74996,609.947231 236.371766,610 237,610 C243.075132,610 248,605.075132 248,599 C248,596.392411 247.087931,593.924962 245.459727,591.968653 L247.10386,584.602371 C247.558572,582.565105 245.948894,581.643024 244.416782,583.050986 L238.860674,588.156874 C238.25004,588.052769 237.628234,588 237,588 C230.924868,588 226,592.924868 226,599 C226,601.607589 226.912069,604.075038 228.540273,606.031347 L226.89614,613.397629 C226.441428,615.434895 228.051106,616.356976 229.583218,614.949014 L235.139326,609.843126 Z M237,622 C224.297451,622 214,611.702549 214,599 C214,586.297451 224.297451,576 237,576 C249.702549,576 260,586.297451 260,599 C260,611.702549 249.702549,622 237,622 Z M237,602 C235.343146,602 234,600.656854 234,599 C234,597.343146 235.343146,596 237,596 C238.656854,596 240,597.343146 240,599 C240,600.656854 238.656854,602 237,602 Z"></path>
            </g>
        </g>
    </g>
</svg>